<mxfile host="app.diagrams.net" modified="2023-11-21T13:25:09.723Z" agent="Mozilla/5.0 (Linux; Android 10; K) AppleWebKit/537.36 (KHTML, like Gecko) Chrome/119.0.0.0 Mobile Safari/537.36 EdgA/119.0.0.0" etag="z3p-Yh7etARrlQ04KigE" version="22.1.3" type="github">
  <diagram name="第 1 页" id="oUR2k8ytDiDzO2kThyHG">
    <mxGraphModel dx="359" dy="566" grid="0" gridSize="10" guides="1" tooltips="1" connect="1" arrows="1" fold="1" page="0" pageScale="1" pageWidth="827" pageHeight="1169" math="0" shadow="0">
      <root>
        <mxCell id="0" />
        <mxCell id="1" parent="0" />
      </root>
    </mxGraphModel>
  </diagram>
</mxfile>
